Coordinates
version=1
nRows=12
nColumns=24
inDegrees=yes

Units are S.I. units (second, meters, Newtons, ...)
Angles are in degrees.

endheader
time	pelvis_tilt	pelvis_list	pelvis_rotation	pelvis_tx	pelvis_ty	pelvis_tz	hip_flexion_r	hip_adduction_r	hip_rotation_r	knee_angle_r	ankle_angle_r	subtalar_angle_r	mtp_angle_r	hip_flexion_l	hip_adduction_l	hip_rotation_l	knee_angle_l	ankle_angle_l	subtalar_angle_l	mtp_angle_l	lumbar_extension	lumbar_bending	lumbar_rotation
      5.53500000	     13.54319012	     -6.19148951	      0.43418446	      1.60053842	      0.91840829	     -0.30210994	    -31.25753729	      7.94610682	      1.88990830	    -15.01038240	     21.47038086	     10.05967214	      0.00000000	     10.32093486	     -4.63746920	      3.23163317	     -8.00727995	     11.80122746	      5.25942367	      0.00000000	    -29.24148389	      4.51111107	      3.08519904
      5.54000000	     13.65137072	     -5.68133339	      0.38186861	      1.60793515	      0.91819136	     -0.30246477	    -31.41768641	      7.32866452	      1.43996751	    -15.85746847	     21.15577768	     10.81514066	      0.00000000	     10.16274007	     -4.03553732	      3.15881225	     -8.63230995	     11.66629781	      4.84778547	      0.00000000	    -29.28541224	      3.93214294	      2.89254586
      5.54500000	     13.57599748	     -5.17368056	      0.25767935	      1.61550048	      0.91791207	     -0.30258656	    -31.35806775	      6.71720413	      1.19982899	    -16.76583207	     20.68495646	     11.26444511	      0.00000000	     10.17234180	     -3.46221989	      2.97088473	     -9.28412200	     11.49680022	      4.57252945	      0.00000000	    -29.09357740	      3.31019472	      2.66374362
      5.55000000	     13.53483994	     -4.63785978	      0.15409884	      1.62304192	      0.91766717	     -0.30285036	    -31.29615434	      6.06239065	      0.82099329	    -17.74029961	     20.24768510	     11.92367876	      0.00000000	     10.15502872	     -2.84258116	      2.82608094	     -9.99690096	     11.34014803	      4.24311780	      0.00000000	    -28.94409599	      2.68124707	      2.47401477
      5.55500000	     13.50838945	     -4.08699820	      0.07640498	      1.63059160	      0.91746977	     -0.30314921	    -31.22198809	      5.40392945	      0.42357259	    -18.75609808	     19.73358619	     12.54776879	      0.00000000	     10.12200900	     -2.20138673	      2.72005932	    -10.74631342	     11.17823689	      3.93315345	      0.00000000	    -28.80830205	      2.04861166	      2.24906655
      5.56000000	     13.47950896	     -3.52489278	      0.01160420	      1.63815771	      0.91730283	     -0.30346720	    -31.11293636	      4.73718781	      0.00516398	    -19.82576062	     19.16380099	     13.17171851	      0.00000000	     10.08552090	     -1.54480822	      2.62894233	    -11.51695909	     11.01706135	      3.63696219	      0.00000000	    -28.66746028	      1.40834524	      2.02313818
      5.56500000	     13.44546765	     -2.95601378	     -0.04554740	      1.64573062	      0.91716296	     -0.30381308	    -30.96347209	      4.06192962	     -0.42734701	    -20.95197766	     18.54163917	     13.78482658	      0.00000000	     10.04592927	     -0.87718218	      2.55571194	    -12.29882806	     10.86036549	      3.35310924	      0.00000000	    -28.51994108	      0.76671774	      1.79829090
      5.57000000	     13.42040794	     -2.36940048	     -0.09738152	      1.65329659	      0.91703291	     -0.30422304	    -30.78595432	      3.35862593	     -0.90606847	    -22.14294827	     17.92928200	     14.40701450	      0.00000000	      9.98850232	     -0.18131362	      2.52601408	    -13.08788935	     10.73428872	      3.04293027	      0.00000000	    -28.38365764	      0.12373388	      1.56041955
      5.57500000	     13.37402735	     -1.79823838	     -0.14740828	      1.66088249	      0.91695963	     -0.30460760	    -30.55559926	      2.67080898	     -1.34926382	    -23.36878774	     17.18738195	     14.96679609	      0.00000000	      9.93864907	      0.49374560	      2.48328666	    -13.86852301	     10.58118563	      2.78942967	      0.00000000	    -28.21811219	     -0.51042996	      1.34742667
      5.58000000	     13.32603008	     -1.23253074	     -0.18598271	      1.66844585	      0.91691442	     -0.30503825	    -30.28875132	      1.98290206	     -1.80182698	    -24.64059964	     16.39890638	     15.52479265	      0.00000000	      9.88191622	      1.17029330	      2.46408026	    -14.64299071	     10.42703443	      2.52297981	      0.00000000	    -28.05581624	     -1.13311334	      1.14770107
      5.58500000	     13.24888386	     -0.67120315	     -0.26051836	      1.67604106	      0.91689390	     -0.30541667	    -29.94597406	      1.27826628	     -2.21364552	    -25.98042308	     15.55722526	     15.97670949	      0.00000000	      9.82169891	      1.83284390	      2.42646597	    -15.36600487	     10.31308886	      2.32592438	      0.00000000	    -27.85173030	     -1.76201779	      0.98093390
      5.59000000	     13.17179087	     -0.12245091	     -0.33282163	      1.68359850	      0.91691304	     -0.30582475	    -29.56482230	      0.57519239	     -2.61954549	    -27.36227626	     14.67154018	     16.40673394	      0.00000000	      9.74955860	      2.48682933	      2.40605938	    -16.06959616	     10.20306052	      2.11294133	      0.00000000	    -27.65250660	     -2.37323862	      0.83981419
